<svg xmlns="http://www.w3.org/2000/svg" viewBox="0 0 226.3 51.65"><defs><style>.cls-1{isolation:isolate;}.cls-2{fill:#ed1c24;}.cls-3{fill:#296e48;}.cls-4{fill:#f99d1c;}.cls-5{mix-blend-mode:multiply;}.cls-6{fill:#f15b25;}.cls-7{fill:#267f64;}.cls-8{fill:#231f20;}</style></defs><g class="cls-1"><g id="Isolation_Mode" data-name="Isolation Mode"><path class="cls-2" d="M17.93,20.87H39.69a1.41,1.41,0,0,0,0-2.81H17.93a1.41,1.41,0,0,0,0,2.81Z"/><path class="cls-3" d="M22.35,29.3H36.6a1.41,1.41,0,0,0,0-2.81H22.35a1.41,1.41,0,0,0,0,2.81Z"/><path class="cls-4" d="M20.32,25H38.19a1.4,1.4,0,0,0,0-2.8H20.32a1.4,1.4,0,1,0,0,2.8Z"/><g class="cls-5"><path class="cls-6" d="M17.7,20.85,38,24.93a1.4,1.4,0,1,0,.48-2.76L18.17,18.08a1.4,1.4,0,1,0-.47,2.77Z"/></g><g class="cls-5"><path class="cls-7" d="M20.09,24.94l16.35,4.33a1.41,1.41,0,0,0,.48-2.77L20.56,22.18a1.4,1.4,0,1,0-.47,2.76Z"/></g><circle class="cls-8" cx="25.62" cy="32.27" r="2.25"/><circle class="cls-8" cx="33.41" cy="32.27" r="2.25"/><path class="cls-8" d="M6.88,15.09h8.94a1.41,1.41,0,0,0,0-2.81H6.88a1.41,1.41,0,0,0,0,2.81Z"/><path class="cls-8" d="M14.89,14.61l1.67,2a1.41,1.41,0,0,0,2.12-1.85l-1.68-2a1.39,1.39,0,0,0-2-.13A1.41,1.41,0,0,0,14.89,14.61Z"/><path class="cls-8" d="M50.45,31.25a1.6,1.6,0,0,1-1.55,1.58,1.76,1.76,0,0,1-1.33-.69l-6.16-6.61A1.72,1.72,0,0,1,41,24.42a1.61,1.61,0,0,1,.47-1l5.85-6.83a1.43,1.43,0,0,1,1.2-.54A1.52,1.52,0,0,1,50,17.57a1.66,1.66,0,0,1-.49,1.1L44.6,24.42,50,30.25A1.43,1.43,0,0,1,50.45,31.25Z"/><path class="cls-8" d="M63.8,25.8v.07A1.67,1.67,0,0,1,62,27.57H55.05A3.22,3.22,0,0,0,58.46,30,4.74,4.74,0,0,0,61,29.26a1.43,1.43,0,0,1,.72-.22,1.32,1.32,0,0,1,1.35,1.33,1.53,1.53,0,0,1-.84,1.33,6.94,6.94,0,0,1-3.86,1.13,6.35,6.35,0,0,1-6.66-6.37A6.22,6.22,0,0,1,58,20.1,5.58,5.58,0,0,1,63.8,25.8Zm-8.75-.57h5.53A2.46,2.46,0,0,0,58,22.78,3,3,0,0,0,55.05,25.23Z"/><path class="cls-8" d="M63.8,37a1.43,1.43,0,0,1-1-1.35,1.38,1.38,0,0,1,1.4-1.43c.12,0,.2,0,.32,0,1.23,0,1.87-.47,1.87-2.19V21.77a1.66,1.66,0,1,1,3.31,0V32.68c0,3-1.77,4.57-4.54,4.57A4.08,4.08,0,0,1,63.8,37Zm6.31-21.09a2.05,2.05,0,0,1-2.09,2,2,2,0,1,1,0-4A2.05,2.05,0,0,1,70.11,15.94Z"/><path class="cls-8" d="M84.39,25.8v.07a1.67,1.67,0,0,1-1.82,1.7H75.64A3.22,3.22,0,0,0,79.06,30a4.8,4.8,0,0,0,2.53-.72A1.43,1.43,0,0,1,82.3,29a1.32,1.32,0,0,1,1.35,1.33,1.52,1.52,0,0,1-.83,1.33A7,7,0,0,1,79,32.83a6.35,6.35,0,0,1-6.66-6.37,6.22,6.22,0,0,1,6.32-6.36A5.57,5.57,0,0,1,84.39,25.8Zm-8.75-.57h5.53a2.46,2.46,0,0,0-2.63-2.45A3,3,0,0,0,75.64,25.23Z"/><path class="cls-8" d="M95.06,31.18a1.41,1.41,0,0,1-.84,1.33,4.43,4.43,0,0,1-1.72.32c-3.17,0-4.86-1.6-4.86-4.57V23.17H87a1.4,1.4,0,1,1,0-2.8h.69V18.7a1.66,1.66,0,1,1,3.31,0v1.67h2.24a1.4,1.4,0,1,1,0,2.8H91V28c0,1.35.64,1.89,2.19,1.89l.47,0A1.32,1.32,0,0,1,95.06,31.18Z"/><path class="cls-8" d="M105.3,31.18a1.41,1.41,0,0,1-.83,1.33,4.43,4.43,0,0,1-1.72.32c-3.17,0-4.87-1.6-4.87-4.57V23.17h-.69a1.4,1.4,0,1,1,0-2.8h.69V18.7a1.66,1.66,0,1,1,3.32,0v1.67h2.24a1.4,1.4,0,1,1,0,2.8H101.2V28c0,1.35.64,1.89,2.19,1.89l.46,0A1.31,1.31,0,0,1,105.3,31.18Z"/><path class="cls-8" d="M111.59,15.94a2.05,2.05,0,0,1-2.09,2,2,2,0,1,1,0-4A2.05,2.05,0,0,1,111.59,15.94Zm-3.73,15.19V21.77a1.66,1.66,0,1,1,3.31,0v9.36a1.66,1.66,0,1,1-3.31,0Z"/><path class="cls-8" d="M123.81,25.31v5.85a1.61,1.61,0,0,1-3.19.36,5.09,5.09,0,0,1-3.57,1.31c-2.51,0-4.2-1.48-4.2-3.64s1.74-3.54,4.59-3.54h3v-.54A2,2,0,0,0,118.21,23a3.49,3.49,0,0,0-2.34.91,1.49,1.49,0,0,1-1,.39,1.38,1.38,0,0,1-1.43-1.35,1.86,1.86,0,0,1,.69-1.32,6.47,6.47,0,0,1,4.4-1.5C121.89,20.1,123.81,22,123.81,25.31ZM120.49,28v-.15h-2.6c-1.11,0-1.7.42-1.7,1.23s.67,1.32,1.75,1.32A2.43,2.43,0,0,0,120.49,28Z"/><path class="cls-8" d="M132.67,16.89V34.05a.91.91,0,1,1-1.82,0V16.89a.9.9,0,0,1,.91-1A.92.92,0,0,1,132.67,16.89Z"/><path class="cls-8" d="M148.19,28.86c0,2.36-1.8,4-4.42,4h-4.71a1.1,1.1,0,0,1-1.14-1.14V20.34a1.1,1.1,0,0,1,1.14-1.14h3.63c2.44,0,4.09,1.47,4.09,3.63a3.28,3.28,0,0,1-1.13,2.56A3.5,3.5,0,0,1,148.19,28.86Zm-8.12-7.74V24.8h2.42c1.3,0,2.08-.69,2.08-1.86s-.76-1.82-2.08-1.82ZM146,28.8a2.08,2.08,0,0,0-2.37-2.13h-3.51v4.24h3.51C145.07,30.91,146,30.12,146,28.8Z"/><path class="cls-8" d="M150.44,28.57v-5a1.07,1.07,0,1,1,2.14,0v5.16a2.22,2.22,0,0,0,2.29,2.31,2.19,2.19,0,0,0,2.23-2.31V23.58a1.08,1.08,0,0,1,1.1-1.12,1.06,1.06,0,0,1,1.07,1.12v5a4.42,4.42,0,1,1-8.83,0Z"/><path class="cls-8" d="M161.73,31.48a.87.87,0,0,1-.31-.7,1,1,0,0,1,1-1,1,1,0,0,1,.68.29,3.44,3.44,0,0,0,2.38,1.06c.88,0,1.63-.38,1.63-1.14s-.6-.93-1.43-1.26l-1-.43c-1.63-.68-2.64-1.43-2.64-3,0-1.87,1.57-2.93,3.57-2.93a4.61,4.61,0,0,1,3.22,1.24,1,1,0,0,1,.33.72.92.92,0,0,1-.91.93,1.08,1.08,0,0,1-.68-.31,3.34,3.34,0,0,0-2-.7c-.81,0-1.39.31-1.39,1s.42.83,1.35,1.2l1,.39c1.83.77,2.76,1.57,2.76,3.06,0,2-1.73,3.09-3.75,3.09A5,5,0,0,1,161.73,31.48Z"/><path class="cls-8" d="M174.24,18.91a1.45,1.45,0,1,1-1.44-1.4A1.43,1.43,0,0,1,174.24,18.91Zm-2.54,13V23.58a1.08,1.08,0,0,1,1.1-1.12,1.06,1.06,0,0,1,1.07,1.12v8.36a1.09,1.09,0,1,1-2.17,0Z"/><path class="cls-8" d="M185.86,26.49v5.45a1.08,1.08,0,1,1-2.16,0V26.78a2.17,2.17,0,0,0-2.21-2.36,2.26,2.26,0,0,0-2.31,2.36v5.16a1.05,1.05,0,0,1-1.08,1.11A1.07,1.07,0,0,1,177,31.94V23.58a1.07,1.07,0,1,1,2.14,0,4.15,4.15,0,0,1,2.92-1.12C184.38,22.46,185.86,24,185.86,26.49Z"/><path class="cls-8" d="M198.17,27.17v.1a1.13,1.13,0,0,1-1.24,1.2h-6.48a3.12,3.12,0,0,0,3.3,2.66,3.9,3.9,0,0,0,2.38-.78,1,1,0,0,1,.55-.21.89.89,0,0,1,.91.91,1,1,0,0,1-.53.91,5.55,5.55,0,0,1-3.37,1.09,5.3,5.3,0,1,1-.23-10.59A4.57,4.57,0,0,1,198.17,27.17Zm-7.68-.39H196a2.45,2.45,0,0,0-2.6-2.48A3,3,0,0,0,190.49,26.78Z"/><path class="cls-8" d="M200.07,31.48a.87.87,0,0,1-.31-.7,1,1,0,0,1,1-1,1,1,0,0,1,.68.29,3.44,3.44,0,0,0,2.38,1.06c.88,0,1.63-.38,1.63-1.14s-.6-.93-1.43-1.26l-1-.43c-1.63-.68-2.64-1.43-2.64-3,0-1.87,1.57-2.93,3.57-2.93a4.59,4.59,0,0,1,3.22,1.24,1,1,0,0,1,.33.72.92.92,0,0,1-.91.93,1.11,1.11,0,0,1-.68-.31,3.34,3.34,0,0,0-2-.7c-.81,0-1.38.31-1.38,1s.41.83,1.34,1.2l1,.39c1.83.77,2.76,1.57,2.76,3.06,0,2-1.73,3.09-3.75,3.09A5,5,0,0,1,200.07,31.48Z"/><path class="cls-8" d="M209.46,31.48a.9.9,0,0,1-.31-.7,1,1,0,0,1,1-1,1,1,0,0,1,.69.29,3.42,3.42,0,0,0,2.37,1.06c.89,0,1.63-.38,1.63-1.14s-.6-.93-1.42-1.26l-1-.43c-1.63-.68-2.64-1.43-2.64-3,0-1.87,1.57-2.93,3.57-2.93a4.59,4.59,0,0,1,3.22,1.24,1,1,0,0,1,.33.72.92.92,0,0,1-.9.93,1.11,1.11,0,0,1-.69-.31,3.29,3.29,0,0,0-2-.7c-.8,0-1.38.31-1.38,1s.41.83,1.34,1.2l1,.39c1.84.77,2.77,1.57,2.77,3.06,0,2-1.74,3.09-3.76,3.09A5,5,0,0,1,209.46,31.48Z"/></g></g></svg>