<svg xmlns="http://www.w3.org/2000/svg" viewBox="0 0 2045.09 431.6"><defs><style>.cls-1{isolation:isolate;}.cls-2{fill:#ec1c24;}.cls-3{fill:#286e47;}.cls-4{fill:#f89c1c;}.cls-5{mix-blend-mode:multiply;}.cls-6{fill:#f05a25;}.cls-7{fill:#257f65;}.cls-8{fill:#fff;}</style></defs><g class="cls-1"><g id="Layer_1" data-name="Layer 1"><path class="cls-2" d="M255.25,210.09h376a24.27,24.27,0,1,0,0-48.53h-376a24.27,24.27,0,0,0,0,48.53Z" transform="translate(-39.96 -61.64)"/><path class="cls-3" d="M331.62,355.81H577.85a24.27,24.27,0,1,0,0-48.53H331.62a24.27,24.27,0,0,0,0,48.53Z" transform="translate(-39.96 -61.64)"/><path class="cls-4" d="M296.5,280.88H605.35a24.27,24.27,0,1,0,0-48.53H296.5a24.27,24.27,0,0,0,0,48.53Z" transform="translate(-39.96 -61.64)"/><g class="cls-5"><path class="cls-6" d="M251.16,209.74l351,70.62a24.27,24.27,0,0,0,8.18-47.84L259.35,161.91a24.26,24.26,0,1,0-8.19,47.83Z" transform="translate(-39.96 -61.64)"/></g><g class="cls-5"><path class="cls-7" d="M292.54,280.54l282.6,74.75a24.27,24.27,0,1,0,8.18-47.84L300.72,232.7a24.27,24.27,0,1,0-8.18,47.84Z" transform="translate(-39.96 -61.64)"/></g><circle class="cls-8" cx="348.1" cy="345.52" r="38.83"/><circle class="cls-8" cx="482.74" cy="345.52" r="38.83"/><path class="cls-8" d="M64.22,110.18H218.73a24.27,24.27,0,1,0,0-48.54H64.22a24.27,24.27,0,0,0,0,48.54Z" transform="translate(-39.96 -61.64)"/><path class="cls-8" d="M202.61,101.89l29,33.88a24.26,24.26,0,0,0,36.52-32l-29-33.88a24.27,24.27,0,0,0-36.53,32Z" transform="translate(-39.96 -61.64)"/><path class="cls-8" d="M817.23,389.61c0,14.44-12.32,27.18-26.76,27.18-8.5,0-16.57-4.25-22.94-11.89L660.92,290.64c-4.67-5.52-7.65-11.89-7.65-19.11,0-5.95,3-12.32,8.07-17.84L762.43,135.61c6-6.8,12.32-9.35,20.82-9.35,14,0,25.91,11.9,25.91,26.76,0,6.8-3,12.74-8.5,19.12l-84.52,99.39L810,372.19C815.1,377.71,817.23,383.66,817.23,389.61Z" transform="translate(-39.96 -61.64)"/><path class="cls-8" d="M1047.87,295.31v1.28c0,17.84-12.74,29.3-31.43,29.3H896.66c6.79,26.34,28,41.63,59,41.63a83,83,0,0,0,43.75-12.32c4.24-2.55,8.07-3.82,12.31-3.82,13.17,0,23.37,9.77,23.37,22.94,0,9.34-4.25,16.14-14.45,22.93-19.11,12.74-42,19.54-66.68,19.54-66.26,0-115.11-47.15-115.11-110,0-62.44,47.15-110,109.16-110C1005.39,196.77,1047.87,238.4,1047.87,295.31Zm-151.21-9.77h95.57c-.85-25.06-18.69-42.47-45.45-42.47C921.72,243.07,903,259.63,896.66,285.54Z" transform="translate(-39.96 -61.64)"/><path class="cls-8" d="M1047.86,489.42c-10.62-4.25-17.41-12.32-17.41-23.36,0-14,10.19-24.63,24.21-24.63,2.12,0,3.4.42,5.52.42,21.24,0,32.28-8.07,32.28-37.8V225.65c0-16.56,12.32-28.88,28.88-28.88,16.14,0,28.46,12.32,28.46,28.88V414.24c0,51.82-30.58,79-78.58,79A70.32,70.32,0,0,1,1047.86,489.42ZM1157,125c0,19.11-16.56,34.4-36.1,34.4s-35.68-15.29-35.68-34.4c0-19.54,16.14-34.83,35.68-34.83S1157,105.45,1157,125Z" transform="translate(-39.96 -61.64)"/><path class="cls-8" d="M1403.8,295.31v1.28c0,17.84-12.74,29.3-31.43,29.3H1252.59c6.79,26.34,28,41.63,59,41.63a83,83,0,0,0,43.75-12.32c4.25-2.55,8.07-3.82,12.32-3.82,13.16,0,23.36,9.77,23.36,22.94,0,9.34-4.25,16.14-14.45,22.93-19.11,12.74-42,19.54-66.68,19.54-66.26,0-115.11-47.15-115.11-110,0-62.44,47.15-110,109.16-110C1361.32,196.77,1403.8,238.4,1403.8,295.31Zm-151.21-9.77h95.57c-.85-25.06-18.69-42.47-45.45-42.47C1277.65,243.07,1259,259.63,1252.59,285.54Z" transform="translate(-39.96 -61.64)"/><path class="cls-8" d="M1588.13,388.33a24.43,24.43,0,0,1-14.44,22.94c-8.07,3.4-17.41,5.52-29.73,5.52-54.79,0-84.1-27.61-84.1-79V249.86H1448c-14,0-24.64-10.19-24.64-24.21S1434,201.44,1448,201.44h11.89V172.56c0-16.57,11.89-28.88,28.88-28.88,16.14,0,28.46,12.31,28.46,28.88v28.88h38.65c14,0,24.21,10.2,24.21,24.21s-10.19,24.21-24.21,24.21H1517.2v82.83c0,23.36,11,32.71,37.8,32.71,3.4,0,6-.43,8.07-.43C1578.36,365,1588.13,374.32,1588.13,388.33Z" transform="translate(-39.96 -61.64)"/><path class="cls-8" d="M1765.23,388.33a24.43,24.43,0,0,1-14.44,22.94c-8.07,3.4-17.41,5.52-29.73,5.52-54.79,0-84.1-27.61-84.1-79V249.86h-11.89c-14,0-24.64-10.19-24.64-24.21s10.62-24.21,24.64-24.21H1637V172.56c0-16.57,11.89-28.88,28.88-28.88,16.14,0,28.46,12.31,28.46,28.88v28.88H1733c14,0,24.21,10.2,24.21,24.21S1747,249.86,1733,249.86H1694.3v82.83c0,23.36,11,32.71,37.8,32.71,3.4,0,6-.43,8.07-.43C1755.46,365,1765.23,374.32,1765.23,388.33Z" transform="translate(-39.96 -61.64)"/><path class="cls-8" d="M1873.88,125c0,19.11-16.56,34.4-36.1,34.4S1802.1,144.1,1802.1,125c0-19.54,16.14-34.83,35.68-34.83S1873.88,105.45,1873.88,125Zm-64.56,262.49V225.65c0-16.56,12.32-28.88,28.88-28.88,16.14,0,28.46,12.32,28.46,28.88V387.48c0,16.57-12.32,29.31-28.88,29.31C1821.64,416.79,1809.32,404.05,1809.32,387.48Z" transform="translate(-39.96 -61.64)"/><path class="cls-8" d="M2085.05,286.82V387.91c0,16.56-11.9,28.45-27.61,28.45-14,0-25.06-9.34-27.61-22.08-15.29,14.44-36.53,22.51-61.59,22.51-43.32,0-72.63-25.48-72.63-62.86,0-37.81,30.16-61.17,79.43-61.17h52.67v-9.34c0-23.36-14-37-39.51-37-14.86,0-28,5.09-40.35,15.71-6.79,5.1-11.46,6.8-17,6.8-14,0-24.63-10.62-24.63-23.36,0-8.07,4.25-15.72,11.89-22.94,17.84-16.57,45.45-25.91,76-25.91C2051.92,196.77,2085.05,229.48,2085.05,286.82Zm-57.34,46.29v-2.54h-45c-19.11,0-29.31,7.22-29.31,21.23s11.47,22.94,30.16,22.94C2008.59,374.74,2027.71,356.9,2027.71,333.11Z" transform="translate(-39.96 -61.64)"/></g></g></svg>