<svg id="Isolation_Mode" data-name="Isolation Mode" xmlns="http://www.w3.org/2000/svg" viewBox="0 0 609 284.63"><defs><style>.cls-1{fill:#296e48;}.cls-2{fill:#f99d1c;}.cls-3{fill:#f15b25;}.cls-4{fill:#267f64;}.cls-5,.cls-6,.cls-7{fill:#231f20;}.cls-6{font-size:127.98px;font-family:CeraRoundPro-Black, Cera Round Pro;font-weight:800;}.cls-7{font-size:72.49px;font-family:CeraRoundPro-Bold, Cera Round Pro;font-weight:700;}.cls-8{letter-spacing:-0.01em;}.cls-9{fill:#ed1c24;}</style></defs><path class="cls-1" d="M231.81,192.6a9.15,9.15,0,0,0-8.69-6.26,9.28,9.28,0,0,0-2.91.47L157,208a9.17,9.17,0,1,0,5.83,17.38L226,204.2A9.17,9.17,0,0,0,231.81,192.6Z"/><path class="cls-2" d="M270.28,174.73l-69.66-46.32a9.16,9.16,0,0,0-10.15,15.26L260.12,190a9.17,9.17,0,1,0,10.16-15.26Z"/><path class="cls-3" d="M237.54,104.85a9.07,9.07,0,0,0-5.94-3.74L136.63,82a8.67,8.67,0,0,0-1.63-.15,9.17,9.17,0,0,0-1.54,18.2l95,19.11a8.64,8.64,0,0,0,1.62.15,9.14,9.14,0,0,0,9-7.62A9,9,0,0,0,237.54,104.85Z"/><path class="cls-4" d="M187.06,174.5a9.08,9.08,0,0,0-5.82-3.71l-76.43-20.22-.11,0-.12,0a8.93,8.93,0,0,0-1.55-.13,9.17,9.17,0,0,0-1.66,18.18l76.43,20.22.12,0,.11,0a10,10,0,0,0,1.55.13,9.17,9.17,0,0,0,7.48-14.47Z"/><path class="cls-5" d="M141.31,192.16A11.82,11.82,0,1,0,153.12,204,11.83,11.83,0,0,0,141.31,192.16Z"/><path class="cls-5" d="M203.44,162.84a11.82,11.82,0,1,0,11.81,11.81A11.83,11.83,0,0,0,203.44,162.84Z"/><path class="cls-5" d="M67,107.54h41.84a6.57,6.57,0,0,0,0-13.14H67a6.57,6.57,0,1,0,0,13.14Z"/><path class="cls-5" d="M108.87,108.84H67A7.87,7.87,0,0,1,67,93.1h41.84a7.87,7.87,0,0,1,0,15.74ZM67,95.7a5.27,5.27,0,1,0,0,10.54h41.84a5.27,5.27,0,1,0,0-10.54Z"/><path class="cls-5" d="M104.51,105.3l7.85,9.17a6.57,6.57,0,1,0,9.89-8.65l-7.85-9.18a6.57,6.57,0,1,0-9.89,8.66Z"/><path class="cls-5" d="M117.32,118h-.54a7.79,7.79,0,0,1-5.4-2.68l-7.86-9.17a7.87,7.87,0,0,1,11.85-10.37l7.87,9.19a7.86,7.86,0,0,1-5.92,13ZM109.45,95.7A5.23,5.23,0,0,0,106,97a5.28,5.28,0,0,0-.5,7.44h0l7.85,9.18a5.28,5.28,0,0,0,7.94-7l-7.87-9.19A5.23,5.23,0,0,0,109.45,95.7Z"/><text class="cls-6" transform="translate(280.02 209.44)">404</text><text class="cls-7" transform="translate(310.75 116.23)">er<tspan class="cls-8" x="69.37" y="0">r</tspan><tspan x="96.77" y="0">or</tspan></text><path class="cls-9" d="M233.18,91.37a9.16,9.16,0,0,0-12.66-2.8l-85.84,54.78a9.17,9.17,0,0,0,9.87,15.45L230.38,104a9.18,9.18,0,0,0,2.8-12.66Z"/></svg>