<svg id="Isolation_Mode" data-name="Isolation Mode" xmlns="http://www.w3.org/2000/svg" viewBox="0 0 609 284.63"><defs><style>.cls-1{fill:#296e48;}.cls-2{fill:#f99d1c;}.cls-3{fill:#f15b25;}.cls-4{fill:#267f64;}.cls-5{fill:#231f20;}.cls-6{fill:#ed1c24;}</style></defs><path class="cls-1" d="M231.81,192.6a9.15,9.15,0,0,0-8.69-6.26,9.28,9.28,0,0,0-2.91.47L157,208a9.17,9.17,0,1,0,5.83,17.38L226,204.2A9.17,9.17,0,0,0,231.81,192.6Z"/><path class="cls-2" d="M270.28,174.73l-69.66-46.32a9.16,9.16,0,0,0-10.15,15.26L260.12,190a9.17,9.17,0,1,0,10.16-15.26Z"/><path class="cls-3" d="M237.54,104.85a9.07,9.07,0,0,0-5.94-3.74L136.63,82a8.67,8.67,0,0,0-1.63-.15,9.17,9.17,0,0,0-1.54,18.2l95,19.11a8.64,8.64,0,0,0,1.62.15,9.14,9.14,0,0,0,9-7.62A9,9,0,0,0,237.54,104.85Z"/><path class="cls-4" d="M187.06,174.5a9.08,9.08,0,0,0-5.82-3.71l-76.43-20.22-.11,0-.12,0a8.93,8.93,0,0,0-1.55-.13,9.17,9.17,0,0,0-1.66,18.18l76.43,20.22.12,0,.11,0a10,10,0,0,0,1.55.13,9.17,9.17,0,0,0,7.48-14.47Z"/><path class="cls-5" d="M141.31,192.16A11.82,11.82,0,1,0,153.12,204,11.83,11.83,0,0,0,141.31,192.16Z"/><path class="cls-5" d="M203.44,162.84a11.82,11.82,0,1,0,11.81,11.81A11.83,11.83,0,0,0,203.44,162.84Z"/><path class="cls-5" d="M67,107.54h41.84a6.57,6.57,0,0,0,0-13.14H67a6.57,6.57,0,1,0,0,13.14Z"/><path class="cls-5" d="M108.87,108.84H67A7.87,7.87,0,0,1,67,93.1h41.84a7.87,7.87,0,0,1,0,15.74ZM67,95.7a5.27,5.27,0,1,0,0,10.54h41.84a5.27,5.27,0,1,0,0-10.54Z"/><path class="cls-5" d="M104.51,105.3l7.85,9.17a6.57,6.57,0,1,0,9.89-8.65l-7.85-9.18a6.57,6.57,0,1,0-9.89,8.66Z"/><path class="cls-5" d="M117.32,118h-.54a7.79,7.79,0,0,1-5.4-2.68l-7.86-9.17a7.87,7.87,0,0,1,11.85-10.37l7.87,9.19a7.86,7.86,0,0,1-5.92,13ZM109.45,95.7A5.23,5.23,0,0,0,106,97a5.28,5.28,0,0,0-.5,7.44h0l7.85,9.18a5.28,5.28,0,0,0,7.94-7l-7.87-9.19A5.23,5.23,0,0,0,109.45,95.7Z"/><path class="cls-5" d="M356.42,186.78a10.25,10.25,0,0,1-10.36,10.11h-.77v3a11,11,0,1,1-22,0v-3H292.56a11,11,0,0,1-10-15.61l22-51.06a11,11,0,0,1,21.12,4.22,11.29,11.29,0,0,1-.64,3.59l-16.38,38.64h14.59v-7.8a11,11,0,1,1,22,0v7.8h.77A10.18,10.18,0,0,1,356.42,186.78Z"/><path class="cls-5" d="M432.83,166.56c0,27.26-13.57,44.41-35.07,44.41s-35.07-17.15-35.07-44.41c0-26.74,13.31-43.12,35.07-43.12S432.83,139.82,432.83,166.56Zm-47.61.13c0,16.13,4.09,24.06,12.54,24.06s12.54-7.93,12.54-24.06c0-15.74-4-23-12.54-23S385.22,151,385.22,166.69Z"/><path class="cls-5" d="M515.63,186.78a10.26,10.26,0,0,1-10.37,10.11h-.77v3a11,11,0,1,1-22,0v-3H451.77a11,11,0,0,1-10-15.61l22-51.06A11,11,0,0,1,484.27,138l-16.38,38.64h14.59v-7.8a11,11,0,1,1,22,0v7.8h.77A10.19,10.19,0,0,1,515.63,186.78Z"/><path class="cls-5" d="M349.23,96.38v.21c0,3-2.17,5-5.36,5H323.43c1.16,4.5,4.79,7.11,10.08,7.11a14.11,14.11,0,0,0,7.46-2.11,4,4,0,0,1,2.1-.65,3.87,3.87,0,0,1,4,3.92c0,1.59-.73,2.75-2.46,3.91a20.43,20.43,0,0,1-11.38,3.33c-11.31,0-19.64-8-19.64-18.77A18.34,18.34,0,0,1,332.2,79.56C342,79.56,349.23,86.66,349.23,96.38Zm-25.8-1.67h16.31c-.15-4.28-3.19-7.25-7.76-7.25C327.71,87.46,324.52,90.29,323.43,94.71Z"/><path class="cls-5" d="M379.61,84.34c0,2.61-1.82,4.42-4.57,4.71-5.22.37-8.41,3.77-8.41,9.28V112.1a4.8,4.8,0,0,1-4.85,5,4.86,4.86,0,0,1-4.93-5V84.49a4.78,4.78,0,0,1,4.85-4.93A4.68,4.68,0,0,1,366.41,84a11.69,11.69,0,0,1,8.77-4.06A4.19,4.19,0,0,1,379.61,84.34Z"/><path class="cls-5" d="M407.73,84.34c0,2.61-1.81,4.42-4.57,4.71-5.21.37-8.4,3.77-8.4,9.28V112.1a4.81,4.81,0,0,1-4.86,5,4.86,4.86,0,0,1-4.93-5V84.49a4.78,4.78,0,0,1,4.86-4.93A4.69,4.69,0,0,1,394.54,84a11.67,11.67,0,0,1,8.77-4.06A4.18,4.18,0,0,1,407.73,84.34Z"/><path class="cls-5" d="M448.83,98.26c0,10.44-8.55,18.77-19.35,18.77a18.77,18.77,0,0,1-19.14-18.77c0-10.51,8.41-18.7,19.21-18.7S448.83,87.82,448.83,98.26Zm-28.56.07c0,5.66,3.91,9.71,9.28,9.71s9.28-4.13,9.28-9.71-4-9.86-9.28-9.86S420.27,92.61,420.27,98.33Z"/><path class="cls-5" d="M479.2,84.34c0,2.61-1.81,4.42-4.57,4.71-5.22.37-8.4,3.77-8.4,9.28V112.1a4.81,4.81,0,0,1-4.86,5,4.86,4.86,0,0,1-4.93-5V84.49a4.78,4.78,0,0,1,4.86-4.93A4.69,4.69,0,0,1,466,84a11.66,11.66,0,0,1,8.77-4.06A4.18,4.18,0,0,1,479.2,84.34Z"/><path class="cls-6" d="M233.18,91.37a9.16,9.16,0,0,0-12.66-2.8l-85.84,54.78a9.17,9.17,0,0,0,9.87,15.45L230.38,104a9.18,9.18,0,0,0,2.8-12.66Z"/></svg>