<?xml version="1.0" encoding="utf-8"?>
<!-- Generator: Adobe Illustrator 25.2.0, SVG Export Plug-In . SVG Version: 6.00 Build 0)  -->
<svg version="1.1" id="Layer_1" xmlns="http://www.w3.org/2000/svg" xmlns:xlink="http://www.w3.org/1999/xlink" x="0px" y="0px"
	 viewBox="0 0 2500 2500" style="enable-background:new 0 0 2500 2500;" xml:space="preserve">
<style type="text/css">
	.st0{fill:#F6F7F9;}
	.st1{fill:#C1C1C1;}
	.st2{fill:url(#SVGID_1_);}
	.st3{fill:#231F20;}
	.st4{fill:#E6E6E6;}
	.st5{opacity:0.43;fill:#E6E6E6;enable-background:new    ;}
	.st6{opacity:0.61;fill:#FFFFFF;enable-background:new    ;}
	.st7{fill:#B28B67;}
	.st8{opacity:0.1;enable-background:new    ;}
	.st9{fill:#68E1FD;}
	.st10{fill:#C94A23;}
	.st11{opacity:0.31;fill:#7C573E;enable-background:new    ;}
	.st12{fill:#F89C1C;}
	.st13{fill:url(#SVGID_2_);}
	.st14{opacity:8.000000e-02;enable-background:new    ;}
	.st15{fill:url(#SVGID_3_);}
	.st16{fill:#257F65;}
	.st17{fill-rule:evenodd;clip-rule:evenodd;fill:#231F20;}
</style>
<circle class="st0" cx="1250" cy="1250" r="1025.4"/>
<g>
	<g>
		<rect x="2953" y="1722.3" class="st1" width="453" height="258.9"/>
		<linearGradient id="SVGID_1_" gradientUnits="userSpaceOnUse" x1="2340.2791" y1="1886.2686" x2="3620.2112" y2="1497.3805">
			<stop  offset="0" style="stop-color:#F05A25"/>
			<stop  offset="1" style="stop-color:#F89C1C"/>
		</linearGradient>
		<rect x="2548.7" y="1503" class="st2" width="532.2" height="478.2"/>
		<g>
			<path class="st3" d="M3395.8,2005.3h-857.8c-11.9,0-22-8.7-23.8-20.5l-82.5-540.9c-3.7-24.8-24.6-42.7-49.6-42.7c0,0,0,0,0,0
				h-117.3c-13.3,0-24.1-10.8-24.1-24.1s10.8-24.1,24.1-24.1H2382c0,0,0.1,0,0.1,0c23.5,0,46.3,8.4,64.1,23.8
				c17.9,15.4,29.6,36.6,33.2,59.9l79.4,520.4h837c32.2,0,60-21.9,67.5-53.2l128.2-528.2c3.1-12.9,16.2-20.9,29.1-17.8
				c12.9,3.1,20.9,16.2,17.8,29.1l-128.2,528.2C3497.4,1968.3,3450.4,2005.3,3395.8,2005.3z"/>
		</g>
		<rect x="2793.8" y="1272.7" class="st4" width="287.1" height="230.1"/>
		<rect x="3070.6" y="1398.7" class="st5" width="335.4" height="323.6"/>
		<g>
			<path class="st3" d="M3446,2278.4h-762.6c-33.7,0-66.4-12.1-92.1-33.9s-42.8-52.2-48.2-85.5l-44.4-275.5
				c-2.1-13.2,6.8-25.5,20-27.7c13.2-2.1,25.5,6.8,27.7,20l44.4,275.4c7.4,45.7,46.4,78.9,92.7,78.9H3446
				c13.3,0,24.1,10.8,24.1,24.1S3459.3,2278.4,3446,2278.4z"/>
		</g>
		<circle class="st3" cx="2722.6" cy="2353.4" r="63.3"/>
		<circle class="st3" cx="3342.7" cy="2353.4" r="63.3"/>
	</g>
	<rect x="2756" y="1503" class="st6" width="105" height="155.3"/>
</g>
<g>
	<path class="st7" d="M2168.4,1318.8c0,0,67.4-58.9,101.4-11.8c33.9,47.1-11,78-69.9,81.2C2141,1391.4,2168.4,1318.8,2168.4,1318.8z
		"/>
	<g>
		<path class="st8" d="M2169.2,1322.9c0,0,63.5-55.5,95.5-11.1s-10.3,73.5-65.9,76.5C2143.3,1391.3,2169.2,1322.9,2169.2,1322.9z"/>
		<path class="st7" d="M2189.2,1355.7c0,0,86-50.1,107.5,0c21.5,50.1-85.4,73.5-85.4,73.5L2189.2,1355.7z"/>
		<g>
			<path class="st9" d="M1572.1,1081.5c0,0,61.5,260.6,231,268.4s359.2-77,359.2-77l33.3,104.4l-464.4,126.2
				c0,0-294.9-151.7-298.6-169.5C1428.9,1316.3,1572.1,1081.5,1572.1,1081.5z"/>
			<path class="st10" d="M1572.1,1081.5c0,0,61.5,260.6,231,268.4s359.2-77,359.2-77l33.3,104.4l-464.4,126.2
				c0,0-294.9-151.7-298.6-169.5C1428.9,1316.3,1572.1,1081.5,1572.1,1081.5z"/>
			<path class="st3" d="M1543.5,2332.2c0,0,34.7,27.8,68.5,11.1c33.9-16.7,61.6,9.3,37.7,35.3s-121.5,34.4-121.5,34.4l-37.7-58.9
				L1543.5,2332.2z"/>
			<path class="st3" d="M652.5,2137.1c0,0-44.4,5.7-55.5,41.9c-11.1,36.2-49.5,37.9-51.5,2.7c-2-35.2,59.4-111.1,59.4-111.1
				l68.6,13.7L652.5,2137.1z"/>
			<polygon class="st7" points="1348.1,435.6 1215.3,751.9 1400.1,855.7 1427.6,571.9 			"/>
			<path class="st11" d="M1425.1,634.5c-23.9-12.7-43.5-32.1-56.5-55.9c0,0-13.8,68.7,44.4,154L1425.1,634.5z"/>
			<path class="st7" d="M1515.2,420.4c0,0,19.5,114.9,6.6,193.6c-4.9,31.9-34.7,53.8-66.6,48.9c-0.4-0.1-0.8-0.1-1.2-0.2
				c-50.5-5.6-93.1-40.3-108.9-88.6l-43.2-98.7c-13.5-42.3,1.2-88.5,36.6-115.3C1400.3,306.9,1506.7,349.7,1515.2,420.4z"/>
			<path class="st7" d="M1399.9,530.3c0,0-4.5-44.8-38-38.9c-33.5,5.8-27.1,70.9,19.5,73.2L1399.9,530.3z"/>
			<path class="st7" d="M1523.8,493.5l36.2,42.1c6.5,8.6,4.8,20.8-3.8,27.3c-1.7,1.3-3.5,2.2-5.5,2.9l-43.6,12.1L1523.8,493.5z"/>
			<path class="st9" d="M1464.1,749.5c-6.3-4.8-12.4-9.8-18.4-15c-36.1-31.5-166.6-132.6-299.2-77.7c-156.4,65.3-86,150.9,48.5,162
				C1577.2,850.9,1494.9,772.3,1464.1,749.5z"/>
			<path class="st12" d="M1464.1,749.5c-6.3-4.8-12.4-9.8-18.4-15c-36.1-31.5-166.6-132.6-299.2-77.7c-156.4,65.3-86,150.9,48.5,162
				C1577.2,850.9,1494.9,772.3,1464.1,749.5z"/>
			<linearGradient id="SVGID_2_" gradientUnits="userSpaceOnUse" x1="109.1679" y1="362.5721" x2="2151.7766" y2="1846.3981">
				<stop  offset="0" style="stop-color:#EC1C24"/>
				<stop  offset="1" style="stop-color:#F05A25"/>
			</linearGradient>
			<path class="st13" d="M1399.4,741c-144.4-54.4-307.4,3.3-393.6,131.6c-41.2,61.3-77.7,136.9-86.4,219.7
				c-21.5,209.2-50.9,393.6-50.9,393.6l407,177.7c0,0,338.2-236.5,323.9-517C1588.9,948.2,1553.5,798.8,1399.4,741z"/>
			<path class="st14" d="M1225.2,855.7c0,0-154.7,172.6-86.4,478.2s-110.2,222.1-110.2,222.1l246.7,108c0,0,122.9-99.2,153.7-138.2
				l30.8-39L1225.2,855.7z"/>
			<path class="st9" d="M1377,790c0,0,133.3,32.3,149.3,199.9s86.4,439.3,286.3,398.8s366.5-67.4,366.5-67.4l32.3,107.8
				c0,0-560.2,326.3-834.3,54S1138.7,736.1,1377,790z"/>
			<linearGradient id="SVGID_3_" gradientUnits="userSpaceOnUse" x1="190.0462" y1="251.2363" x2="2232.655" y2="1735.0624">
				<stop  offset="0" style="stop-color:#EC1C24"/>
				<stop  offset="1" style="stop-color:#F05A25"/>
			</linearGradient>
			<path class="st15" d="M1377,790c0,0,133.3,32.3,149.3,199.9s86.4,439.3,286.3,398.8s366.5-67.4,366.5-67.4l32.3,107.8
				c0,0-560.2,326.3-834.3,54S1138.7,736.1,1377,790z"/>
			<path class="st16" d="M868.5,1485.9c0,0-67.4,126.7,0,177.7c67.4,51,523.6,436.9,610.8,695.8l92.8-37.8
				c0,0-78.5-369.5-296.9-658.1L868.5,1485.9z"/>
			<path class="st16" d="M868.5,1663.9c0,0,347.9,482.7-218.5,382.9v100c0,0,571.4,153.8,555.3-199.9S868.5,1663.9,868.5,1663.9z"/>
			<path id="Combined-Shape_1_" class="st17" d="M1373.9,489.3c-4.8-3.3-10.6-5.3-16.8-5.3c-17,0-30.8,15.2-30.8,30.8
				c0,16.2,7.7,28.8,18.6,34.1c-5.9,11.4-11.7,19.7-18.6,21.2c-26.6-2.7-61.5-68.8-61.5-123.1c0-59.4,47.3-110.8,135.4-110.8
				c79.2,0,109.2,32.7,110.8,61.5c-33.9,9.3-93.2,12.9-178.5,12.3v6.2l73.8,6.2l12.3,36.9C1399.1,457.9,1385.1,471.3,1373.9,489.3z"
				/>
		</g>
	</g>
</g>
</svg>
